<svg xmlns="http://www.w3.org/2000/svg" xmlns:xlink="http://www.w3.org/1999/xlink" width="500" zoomAndPan="magnify" viewBox="0 0 375 374.999991" height="500" preserveAspectRatio="xMidYMid meet" version="1.0"><defs><g/><clipPath id="ebe72f9d0d"><path d="M 236 128.195312 L 260.347656 128.195312 L 260.347656 171.695312 L 236 171.695312 Z M 236 128.195312 " clip-rule="nonzero"/></clipPath><clipPath id="d9fef2a376"><path d="M 216.097656 130 L 235 130 L 235 164 L 216.097656 164 Z M 216.097656 130 " clip-rule="nonzero"/></clipPath><clipPath id="1fa49730ce"><path d="M 220.605469 130.84375 C 220.1875 132.9375 221.234375 135.09375 222.738281 136.601562 C 224.246094 138.105469 226.171875 139.109375 228.011719 140.1875 C 229.855469 141.261719 231.691406 142.488281 232.847656 144.277344 C 233.855469 145.835938 234.265625 147.703125 234.476562 149.546875 C 234.734375 151.78125 234.699219 154.128906 233.988281 156.234375 C 233.46875 154.964844 232.796875 153.75 232.027344 152.617188 C 230.523438 150.386719 228.667969 148.414062 226.824219 146.457031 C 224.667969 144.171875 222.515625 141.882812 220.355469 139.59375 C 222.585938 143.78125 226.046875 147.148438 228.972656 150.886719 C 231.898438 154.617188 234.390625 159.078125 234.117188 163.8125 C 233.898438 161.390625 231.933594 159.46875 229.800781 158.296875 C 227.671875 157.125 225.277344 156.472656 223.171875 155.25 C 219.199219 152.921875 216.523438 148.511719 216.316406 143.914062 C 216.105469 139.265625 218.230469 134.847656 220.605469 130.84375 Z M 220.605469 130.84375 " clip-rule="nonzero"/></clipPath><linearGradient x1="-1204.20996" gradientTransform="matrix(-0.0434075, 0, 0, 0.0434075, 173.18991, 128.196627)" y1="60.999679" x2="-1204.20996" gradientUnits="userSpaceOnUse" y2="820.49969" id="d134046611"><stop stop-opacity="1" stop-color="rgb(53.50647%, 74.847412%, 25.752258%)" offset="0"/><stop stop-opacity="1" stop-color="rgb(53.416443%, 74.743652%, 25.744629%)" offset="0.125"/><stop stop-opacity="1" stop-color="rgb(53.236389%, 74.534607%, 25.727844%)" offset="0.25"/><stop stop-opacity="1" stop-color="rgb(53.057861%, 74.325562%, 25.71106%)" offset="0.375"/><stop stop-opacity="1" stop-color="rgb(52.877808%, 74.118042%, 25.695801%)" offset="0.5"/><stop stop-opacity="1" stop-color="rgb(52.69928%, 73.908997%, 25.679016%)" offset="0.625"/><stop stop-opacity="1" stop-color="rgb(52.520752%, 73.701477%, 25.662231%)" offset="0.75"/><stop stop-opacity="1" stop-color="rgb(52.340698%, 73.492432%, 25.646973%)" offset="0.875"/><stop stop-opacity="1" stop-color="rgb(52.16217%, 73.283386%, 25.630188%)" offset="1"/></linearGradient></defs><g clip-path="url(#ebe72f9d0d)"><path fill="#8cc342" d="M 254.574219 128.195312 C 255.125 130.957031 253.746094 133.804688 251.757812 135.792969 C 249.769531 137.785156 247.226562 139.105469 244.800781 140.523438 C 242.367188 141.945312 239.941406 143.5625 238.417969 145.929688 C 237.089844 147.984375 236.546875 150.453125 236.269531 152.882812 C 235.921875 155.835938 235.96875 158.929688 236.90625 161.707031 C 237.589844 160.03125 238.480469 158.429688 239.492188 156.933594 C 241.480469 153.984375 243.925781 151.386719 246.363281 148.796875 C 249.210938 145.777344 252.050781 142.761719 254.898438 139.738281 C 251.953125 145.261719 247.386719 149.714844 243.527344 154.640625 C 239.667969 159.570312 236.378906 165.457031 236.738281 171.707031 C 237.023438 168.507812 239.621094 165.96875 242.4375 164.425781 C 245.253906 162.878906 248.410156 162.015625 251.183594 160.402344 C 256.433594 157.34375 259.960938 151.519531 260.234375 145.449219 C 260.511719 139.3125 257.714844 133.476562 254.574219 128.195312 Z M 254.574219 128.195312 " fill-opacity="1" fill-rule="nonzero"/></g><g clip-path="url(#d9fef2a376)"><g clip-path="url(#1fa49730ce)"><path fill="url(#d134046611)" d="M 234.734375 130.84375 L 234.734375 163.8125 L 216.105469 163.8125 L 216.105469 130.84375 Z M 234.734375 130.84375 " fill-rule="nonzero"/></g></g><g fill="#393d37" fill-opacity="1"><g transform="translate(69.349204, 193.086374)"><g><path d="M 3.3125 -45.453125 L 19.890625 -45.453125 C 24.515625 -45.453125 28.257812 -44.257812 31.125 -41.875 C 33.988281 -39.488281 35.421875 -36.015625 35.421875 -31.453125 C 35.421875 -26.898438 33.96875 -23.328125 31.0625 -20.734375 C 28.164062 -18.148438 24.441406 -16.859375 19.890625 -16.859375 L 13.65625 -16.859375 L 13.65625 0 L 3.3125 0 Z M 13.65625 -25.125 L 16.578125 -25.125 C 18.890625 -25.125 20.789062 -25.59375 22.28125 -26.53125 C 23.769531 -27.46875 24.515625 -29 24.515625 -31.125 C 24.515625 -33.289062 23.769531 -34.84375 22.28125 -35.78125 C 20.789062 -36.71875 18.890625 -37.1875 16.578125 -37.1875 L 13.65625 -37.1875 Z M 13.65625 -25.125 "/></g></g></g><g fill="#393d37" fill-opacity="1"><g transform="translate(101.355695, 193.086374)"><g><path d="M 3.3125 0 L 3.3125 -28.265625 L 13.0625 -28.265625 L 13.0625 -24.1875 L 13.171875 -24.1875 C 13.242188 -24.332031 13.363281 -24.515625 13.53125 -24.734375 C 13.695312 -24.953125 14.050781 -25.335938 14.59375 -25.890625 C 15.144531 -26.441406 15.734375 -26.9375 16.359375 -27.375 C 16.984375 -27.820312 17.789062 -28.21875 18.78125 -28.5625 C 19.78125 -28.914062 20.789062 -29.09375 21.8125 -29.09375 C 22.882812 -29.09375 23.929688 -28.941406 24.953125 -28.640625 C 25.984375 -28.347656 26.738281 -28.054688 27.21875 -27.765625 L 27.984375 -27.328125 L 23.90625 -19.0625 C 22.695312 -20.09375 21.007812 -20.609375 18.84375 -20.609375 C 17.664062 -20.609375 16.65625 -20.347656 15.8125 -19.828125 C 14.96875 -19.316406 14.367188 -18.691406 14.015625 -17.953125 C 13.671875 -17.222656 13.425781 -16.597656 13.28125 -16.078125 C 13.132812 -15.566406 13.0625 -15.164062 13.0625 -14.875 L 13.0625 0 Z M 3.3125 0 "/></g></g></g><g fill="#393d37" fill-opacity="1"><g transform="translate(124.107074, 193.086374)"><g><path d="M 5.96875 -3.359375 C 2.832031 -6.148438 1.265625 -9.726562 1.265625 -14.09375 C 1.265625 -18.46875 2.898438 -22.0625 6.171875 -24.875 C 9.441406 -27.6875 13.484375 -29.09375 18.296875 -29.09375 C 23.023438 -29.09375 27.015625 -27.675781 30.265625 -24.84375 C 33.523438 -22.019531 35.15625 -18.441406 35.15625 -14.109375 C 35.15625 -9.773438 33.566406 -6.203125 30.390625 -3.390625 C 27.210938 -0.578125 23.179688 0.828125 18.296875 0.828125 C 13.222656 0.828125 9.113281 -0.566406 5.96875 -3.359375 Z M 13.515625 -18.890625 C 12.253906 -17.648438 11.625 -16.054688 11.625 -14.109375 C 11.625 -12.160156 12.226562 -10.570312 13.4375 -9.34375 C 14.65625 -8.113281 16.253906 -7.5 18.234375 -7.5 C 20.140625 -7.5 21.707031 -8.117188 22.9375 -9.359375 C 24.175781 -10.609375 24.796875 -12.191406 24.796875 -14.109375 C 24.796875 -16.054688 24.160156 -17.648438 22.890625 -18.890625 C 21.617188 -20.140625 20.066406 -20.765625 18.234375 -20.765625 C 16.359375 -20.765625 14.785156 -20.140625 13.515625 -18.890625 Z M 13.515625 -18.890625 "/></g></g></g><g fill="#393d37" fill-opacity="1"><g transform="translate(155.838105, 193.086374)"><g><path d="M 44.40625 -25.453125 L 44.40625 -15.59375 C 43.226562 -10.195312 40.65625 -6.109375 36.6875 -3.328125 C 32.726562 -0.554688 28.304688 0.828125 23.421875 0.828125 C 17.285156 0.828125 12.054688 -1.46875 7.734375 -6.0625 C 3.421875 -10.65625 1.265625 -16.203125 1.265625 -22.703125 C 1.265625 -29.304688 3.375 -34.882812 7.59375 -39.4375 C 11.820312 -44 17.097656 -46.28125 23.421875 -46.28125 C 30.796875 -46.28125 36.632812 -43.691406 40.9375 -38.515625 L 34.15625 -31.078125 C 31.726562 -34.960938 28.347656 -36.90625 24.015625 -36.90625 C 20.828125 -36.90625 18.101562 -35.519531 15.84375 -32.75 C 13.582031 -29.976562 12.453125 -26.628906 12.453125 -22.703125 C 12.453125 -18.835938 13.582031 -15.535156 15.84375 -12.796875 C 18.101562 -10.066406 20.828125 -8.703125 24.015625 -8.703125 C 26.660156 -8.703125 28.960938 -9.5 30.921875 -11.09375 C 32.890625 -12.695312 33.875 -14.820312 33.875 -17.46875 L 23.421875 -17.46875 L 23.421875 -25.453125 Z M 44.40625 -25.453125 "/></g></g></g><g fill="#393d37" fill-opacity="1"><g transform="translate(196.824247, 193.086374)"><g><path d="M 3.3125 0 L 3.3125 -28.265625 L 13.0625 -28.265625 L 13.0625 -24.1875 L 13.171875 -24.1875 C 13.242188 -24.332031 13.363281 -24.515625 13.53125 -24.734375 C 13.695312 -24.953125 14.050781 -25.335938 14.59375 -25.890625 C 15.144531 -26.441406 15.734375 -26.9375 16.359375 -27.375 C 16.984375 -27.820312 17.789062 -28.21875 18.78125 -28.5625 C 19.78125 -28.914062 20.789062 -29.09375 21.8125 -29.09375 C 22.882812 -29.09375 23.929688 -28.941406 24.953125 -28.640625 C 25.984375 -28.347656 26.738281 -28.054688 27.21875 -27.765625 L 27.984375 -27.328125 L 23.90625 -19.0625 C 22.695312 -20.09375 21.007812 -20.609375 18.84375 -20.609375 C 17.664062 -20.609375 16.65625 -20.347656 15.8125 -19.828125 C 14.96875 -19.316406 14.367188 -18.691406 14.015625 -17.953125 C 13.671875 -17.222656 13.425781 -16.597656 13.28125 -16.078125 C 13.132812 -15.566406 13.0625 -15.164062 13.0625 -14.875 L 13.0625 0 Z M 3.3125 0 "/></g></g></g><g fill="#393d37" fill-opacity="1"><g transform="translate(219.575627, 193.086374)"><g><path d="M 5.96875 -3.359375 C 2.832031 -6.148438 1.265625 -9.726562 1.265625 -14.09375 C 1.265625 -18.46875 2.898438 -22.0625 6.171875 -24.875 C 9.441406 -27.6875 13.484375 -29.09375 18.296875 -29.09375 C 23.023438 -29.09375 27.015625 -27.675781 30.265625 -24.84375 C 33.523438 -22.019531 35.15625 -18.441406 35.15625 -14.109375 C 35.15625 -9.773438 33.566406 -6.203125 30.390625 -3.390625 C 27.210938 -0.578125 23.179688 0.828125 18.296875 0.828125 C 13.222656 0.828125 9.113281 -0.566406 5.96875 -3.359375 Z M 13.515625 -18.890625 C 12.253906 -17.648438 11.625 -16.054688 11.625 -14.109375 C 11.625 -12.160156 12.226562 -10.570312 13.4375 -9.34375 C 14.65625 -8.113281 16.253906 -7.5 18.234375 -7.5 C 20.140625 -7.5 21.707031 -8.117188 22.9375 -9.359375 C 24.175781 -10.609375 24.796875 -12.191406 24.796875 -14.109375 C 24.796875 -16.054688 24.160156 -17.648438 22.890625 -18.890625 C 21.617188 -20.140625 20.066406 -20.765625 18.234375 -20.765625 C 16.359375 -20.765625 14.785156 -20.140625 13.515625 -18.890625 Z M 13.515625 -18.890625 "/></g></g></g><g fill="#393d37" fill-opacity="1"><g transform="translate(251.306658, 193.086374)"><g><path d="M 20.65625 0 L 14.046875 0 L -1.109375 -28.265625 L 10.140625 -28.265625 L 17.03125 -13 L 23.796875 -28.265625 L 30.515625 -28.265625 L 37.296875 -13 L 44.1875 -28.265625 L 55.421875 -28.265625 L 40.28125 0 L 33.65625 0 L 27.15625 -14.59375 Z M 20.65625 0 "/></g></g></g><g fill="#55833d" fill-opacity="1"><g transform="translate(134.965366, 217.951524)"><g><path d="M 15.671875 -6.671875 L 15.515625 -5.796875 C 15.210938 -4.054688 14.367188 -2.628906 12.984375 -1.515625 C 11.597656 -0.390625 10.035156 0.171875 8.296875 0.171875 C 7.285156 0.171875 6.332031 -0.0234375 5.4375 -0.421875 C 4.539062 -0.796875 3.765625 -1.320312 3.109375 -2 C 2.429688 -2.65625 1.90625 -3.429688 1.53125 -4.328125 C 1.132812 -5.222656 0.9375 -6.179688 0.9375 -7.203125 C 0.9375 -8.210938 1.132812 -9.164062 1.53125 -10.0625 C 1.90625 -10.957031 2.429688 -11.738281 3.109375 -12.40625 C 3.765625 -13.0625 4.539062 -13.585938 5.4375 -13.984375 C 6.332031 -14.359375 7.234375 -14.546875 8.140625 -14.546875 C 9.847656 -14.546875 11.351562 -14.066406 12.65625 -13.109375 C 13.976562 -12.140625 14.875 -10.863281 15.34375 -9.28125 L 13.796875 -9.28125 C 13.347656 -10.445312 12.628906 -11.367188 11.640625 -12.046875 C 10.628906 -12.734375 9.515625 -13.078125 8.296875 -13.078125 C 6.671875 -13.078125 5.285156 -12.503906 4.140625 -11.359375 C 2.992188 -10.210938 2.421875 -8.828125 2.421875 -7.203125 C 2.421875 -5.585938 2.992188 -4.203125 4.140625 -3.046875 C 5.273438 -1.878906 6.660156 -1.296875 8.296875 -1.296875 C 9.585938 -1.296875 10.765625 -1.671875 11.828125 -2.421875 C 12.867188 -3.171875 13.601562 -4.160156 14.03125 -5.390625 L 8.234375 -5.390625 L 8.234375 -6.671875 Z M 15.671875 -6.671875 "/></g></g></g><g fill="#55833d" fill-opacity="1"><g transform="translate(151.57643, 217.951524)"><g><path d="M 8.921875 -4.625 C 8.921875 -5.519531 8.613281 -6.300781 8 -6.96875 C 7.375 -7.644531 6.597656 -7.984375 5.671875 -7.984375 C 4.742188 -7.984375 3.972656 -7.644531 3.359375 -6.96875 C 2.734375 -6.300781 2.421875 -5.519531 2.421875 -4.625 C 2.421875 -3.726562 2.734375 -2.941406 3.359375 -2.265625 C 3.972656 -1.597656 4.742188 -1.265625 5.671875 -1.265625 C 6.597656 -1.265625 7.375 -1.597656 8 -2.265625 C 8.613281 -2.941406 8.921875 -3.726562 8.921875 -4.625 Z M 10.390625 0 L 8.921875 0 L 8.921875 -1.578125 C 8.835938 -1.460938 8.753906 -1.359375 8.671875 -1.265625 C 7.785156 -0.285156 6.707031 0.203125 5.4375 0.203125 C 4.164062 0.203125 3.09375 -0.285156 2.21875 -1.265625 C 1.363281 -2.210938 0.9375 -3.332031 0.9375 -4.625 C 0.9375 -5.90625 1.363281 -7.023438 2.21875 -7.984375 C 3.09375 -8.960938 4.164062 -9.453125 5.4375 -9.453125 C 6.707031 -9.453125 7.785156 -8.960938 8.671875 -7.984375 C 8.753906 -7.878906 8.835938 -7.773438 8.921875 -7.671875 L 8.921875 -9.234375 L 10.390625 -9.234375 Z M 10.390625 0 "/></g></g></g><g fill="#55833d" fill-opacity="1"><g transform="translate(163.54648, 217.951524)"><g><path d="M 6.328125 -7.328125 C 5.984375 -7.640625 5.617188 -7.796875 5.234375 -7.796875 C 4.847656 -7.796875 4.523438 -7.6875 4.265625 -7.46875 C 3.984375 -7.25 3.75 -6.984375 3.5625 -6.671875 C 3.21875 -6.054688 3.046875 -5.375 3.046875 -4.625 L 3.046875 0 L 1.578125 0 L 1.578125 -9.234375 L 3.046875 -9.234375 L 3.046875 -7.328125 L 3.109375 -7.703125 C 3.597656 -8.847656 4.359375 -9.421875 5.390625 -9.421875 C 5.710938 -9.421875 6.023438 -9.359375 6.328125 -9.234375 Z M 6.328125 -7.328125 "/></g></g></g><g fill="#55833d" fill-opacity="1"><g transform="translate(170.077508, 217.951524)"><g><path d="M 8.921875 -4.625 C 8.921875 -5.519531 8.613281 -6.300781 8 -6.96875 C 7.375 -7.644531 6.597656 -7.984375 5.671875 -7.984375 C 4.742188 -7.984375 3.972656 -7.644531 3.359375 -6.96875 C 2.734375 -6.300781 2.421875 -5.519531 2.421875 -4.625 C 2.421875 -3.726562 2.734375 -2.941406 3.359375 -2.265625 C 3.972656 -1.597656 4.742188 -1.265625 5.671875 -1.265625 C 6.597656 -1.265625 7.375 -1.597656 8 -2.265625 C 8.613281 -2.941406 8.921875 -3.726562 8.921875 -4.625 Z M 10.390625 0 L 8.921875 0 L 8.921875 -1.578125 C 8.835938 -1.460938 8.753906 -1.359375 8.671875 -1.265625 C 7.785156 -0.285156 6.707031 0.203125 5.4375 0.203125 C 4.164062 0.203125 3.09375 -0.285156 2.21875 -1.265625 C 1.363281 -2.210938 0.9375 -3.332031 0.9375 -4.625 C 0.9375 -5.90625 1.363281 -7.023438 2.21875 -7.984375 C 3.09375 -8.960938 4.164062 -9.453125 5.4375 -9.453125 C 6.707031 -9.453125 7.785156 -8.960938 8.671875 -7.984375 C 8.753906 -7.878906 8.835938 -7.773438 8.921875 -7.671875 L 8.921875 -15.75 L 10.390625 -15.75 Z M 10.390625 0 "/></g></g></g><g fill="#55833d" fill-opacity="1"><g transform="translate(182.047558, 217.951524)"><g><path d="M 10.609375 -4.828125 L 10.609375 -4.046875 L 2.484375 -4.046875 C 2.617188 -3.253906 3.003906 -2.601562 3.640625 -2.09375 C 4.273438 -1.582031 4.988281 -1.328125 5.78125 -1.328125 C 6.3125 -1.328125 6.820312 -1.453125 7.3125 -1.703125 C 7.78125 -1.941406 8.175781 -2.273438 8.5 -2.703125 L 10.1875 -2.703125 C 9.789062 -1.828125 9.203125 -1.132812 8.421875 -0.625 C 7.617188 -0.113281 6.8125 0.140625 6 0.140625 C 5.175781 0.140625 4.476562 0.015625 3.90625 -0.234375 C 3.320312 -0.484375 2.8125 -0.828125 2.375 -1.265625 C 1.414062 -2.179688 0.9375 -3.3125 0.9375 -4.65625 C 0.9375 -5.988281 1.414062 -7.128906 2.375 -8.078125 C 3.3125 -9.015625 4.445312 -9.484375 5.78125 -9.484375 C 7.0625 -9.484375 8.1875 -9.03125 9.15625 -8.125 C 10.125 -7.195312 10.609375 -6.097656 10.609375 -4.828125 Z M 9.046875 -5.3125 C 8.878906 -6.09375 8.488281 -6.742188 7.875 -7.265625 C 7.257812 -7.765625 6.5625 -8.015625 5.78125 -8.015625 C 4.570312 -8.015625 3.625 -7.476562 2.9375 -6.40625 C 2.726562 -6.070312 2.582031 -5.707031 2.5 -5.3125 Z M 9.046875 -5.3125 "/></g></g></g><g fill="#55833d" fill-opacity="1"><g transform="translate(193.492611, 217.951524)"><g><path d="M 7.953125 0 L 7.953125 -5.78125 C 7.953125 -6.375 7.820312 -6.890625 7.5625 -7.328125 C 7.28125 -7.742188 6.820312 -7.953125 6.1875 -7.953125 C 5.5625 -7.953125 5.050781 -7.835938 4.65625 -7.609375 C 4.269531 -7.367188 3.957031 -7.054688 3.71875 -6.671875 C 3.269531 -5.972656 3.046875 -5.035156 3.046875 -3.859375 L 3.046875 0 L 1.578125 0 L 1.578125 -9.234375 L 3.046875 -9.234375 L 3.046875 -7.640625 C 3.347656 -8.160156 3.738281 -8.585938 4.21875 -8.921875 C 4.726562 -9.253906 5.3125 -9.421875 5.96875 -9.421875 C 6.625 -9.421875 7.15625 -9.332031 7.5625 -9.15625 C 7.96875 -8.957031 8.3125 -8.695312 8.59375 -8.375 C 9.144531 -7.71875 9.421875 -6.851562 9.421875 -5.78125 L 9.421875 0 Z M 7.953125 0 "/></g></g></g><g fill="#55833d" fill-opacity="1"><g transform="translate(204.181655, 217.951524)"><g><path d="M 3.0625 -12.4375 C 3.25 -12.25 3.34375 -12.03125 3.34375 -11.78125 C 3.34375 -11.507812 3.25 -11.285156 3.0625 -11.109375 C 2.882812 -10.929688 2.671875 -10.84375 2.421875 -10.84375 C 2.148438 -10.84375 1.925781 -10.929688 1.75 -11.109375 C 1.5625 -11.285156 1.46875 -11.507812 1.46875 -11.78125 C 1.46875 -12.03125 1.5625 -12.25 1.75 -12.4375 C 1.925781 -12.613281 2.148438 -12.703125 2.421875 -12.703125 C 2.671875 -12.703125 2.882812 -12.613281 3.0625 -12.4375 Z M 3.15625 0 L 1.6875 0 L 1.6875 -9.234375 L 3.15625 -9.234375 Z M 3.15625 0 "/></g></g></g><g fill="#55833d" fill-opacity="1"><g transform="translate(208.990679, 217.951524)"><g><path d="M 7.953125 0 L 7.953125 -5.78125 C 7.953125 -6.375 7.820312 -6.890625 7.5625 -7.328125 C 7.28125 -7.742188 6.820312 -7.953125 6.1875 -7.953125 C 5.5625 -7.953125 5.050781 -7.835938 4.65625 -7.609375 C 4.269531 -7.367188 3.957031 -7.054688 3.71875 -6.671875 C 3.269531 -5.972656 3.046875 -5.035156 3.046875 -3.859375 L 3.046875 0 L 1.578125 0 L 1.578125 -9.234375 L 3.046875 -9.234375 L 3.046875 -7.640625 C 3.347656 -8.160156 3.738281 -8.585938 4.21875 -8.921875 C 4.726562 -9.253906 5.3125 -9.421875 5.96875 -9.421875 C 6.625 -9.421875 7.15625 -9.332031 7.5625 -9.15625 C 7.96875 -8.957031 8.3125 -8.695312 8.59375 -8.375 C 9.144531 -7.71875 9.421875 -6.851562 9.421875 -5.78125 L 9.421875 0 Z M 7.953125 0 "/></g></g></g><g fill="#55833d" fill-opacity="1"><g transform="translate(219.679724, 217.951524)"><g><path d="M 9.046875 -4.625 C 9.046875 -5.519531 8.738281 -6.300781 8.125 -6.96875 C 7.5 -7.644531 6.722656 -7.984375 5.796875 -7.984375 C 4.898438 -7.984375 4.128906 -7.644531 3.484375 -6.96875 C 2.859375 -6.3125 2.546875 -5.53125 2.546875 -4.625 C 2.546875 -3.707031 2.859375 -2.921875 3.484375 -2.265625 C 4.128906 -1.597656 4.898438 -1.265625 5.796875 -1.265625 C 6.722656 -1.265625 7.5 -1.597656 8.125 -2.265625 C 8.738281 -2.941406 9.046875 -3.726562 9.046875 -4.625 Z M 2.5 1.265625 C 2.632812 1.835938 2.9375 2.347656 3.40625 2.796875 C 4.050781 3.453125 4.828125 3.78125 5.734375 3.78125 C 6.640625 3.78125 7.421875 3.453125 8.078125 2.796875 C 8.722656 2.148438 9.046875 1.375 9.046875 0.46875 L 9.046875 -1.546875 C 8.984375 -1.453125 8.90625 -1.359375 8.8125 -1.265625 C 7.9375 -0.285156 6.863281 0.203125 5.59375 0.203125 C 4.300781 0.203125 3.222656 -0.285156 2.359375 -1.265625 C 1.503906 -2.210938 1.078125 -3.332031 1.078125 -4.625 C 1.078125 -5.90625 1.503906 -7.023438 2.359375 -7.984375 C 3.222656 -8.960938 4.300781 -9.453125 5.59375 -9.453125 C 6.820312 -9.453125 7.894531 -8.960938 8.8125 -7.984375 C 8.90625 -7.878906 8.984375 -7.78125 9.046875 -7.6875 L 9.046875 -9.234375 L 10.515625 -9.234375 L 10.515625 0.46875 C 10.515625 1.78125 10.046875 2.90625 9.109375 3.84375 C 8.171875 4.78125 7.046875 5.25 5.734375 5.25 C 4.421875 5.25 3.296875 4.78125 2.359375 3.84375 C 1.609375 3.101562 1.160156 2.242188 1.015625 1.265625 Z M 2.5 1.265625 "/></g></g></g></svg>